<?xml version="1.0" encoding="utf-8"?>
<!-- Generator: Adobe Illustrator 16.0.0, SVG Export Plug-In . SVG Version: 6.00 Build 0)  -->
<!DOCTYPE svg PUBLIC "-//W3C//DTD SVG 1.1//EN" "http://www.w3.org/Graphics/SVG/1.1/DTD/svg11.dtd">
<svg version="1.1" xmlns="http://www.w3.org/2000/svg" xmlns:xlink="http://www.w3.org/1999/xlink" x="0px" y="0px" width="1000px"
	 height="1000px" viewBox="0 0 1000 1000" enable-background="new 0 0 1000 1000" xml:space="preserve">
<g id="Layer_2">
</g>
<g id="Layer_1">
	<g>
		<path d="M362.069,959.104c-68.622-8.234-125.235-38.771-169.84-91.61S109.196,734.366,76.943,626.63
			C44.691,518.893,32.682,430.713,40.917,362.091c8.235-68.623,38.772-125.236,91.611-169.84
			c52.839-44.604,133.127-83.033,240.864-115.286c107.737-32.252,195.917-44.261,264.54-36.027
			c68.621,8.235,125.234,38.772,169.84,91.611c44.604,52.839,83.033,133.127,115.285,240.865
			c32.252,107.737,44.262,195.917,36.027,264.538c-8.236,68.623-38.771,125.236-91.611,169.841s-132.785,82.689-239.836,114.256
			C519.215,954.986,430.691,967.339,362.069,959.104z M746.424,373.862c0-93.919-76.408-170.327-170.326-170.327H363.845h-74.678
			c-28.943,0-52.408,23.465-52.408,52.408s23.465,52.408,52.408,52.408h22.27v366.857h-22.27c-28.943,0-52.408,23.465-52.408,52.408
			s23.465,52.408,52.408,52.408h74.678h212.253c93.918,0,170.326-76.407,170.326-170.326c0-45.725-18.113-87.293-47.537-117.919
			C728.311,461.155,746.424,419.586,746.424,373.862z M576.098,439.372H416.253V308.352h159.845c36.123,0,65.51,29.387,65.51,65.511
			C641.607,409.985,612.221,439.372,576.098,439.372z M576.098,675.209H416.253V544.188h159.845c36.123,0,65.51,29.387,65.51,65.511
			C641.607,645.822,612.221,675.209,576.098,675.209z"/>
	</g>
</g>
</svg>
